<?xml version="1.0" encoding="UTF-8" standalone="no"?>
<svg
   style="enable-background:new"
   height="512"
   viewBox="0 0 512.40002 512"
   width="512.4"
   version="1.1"
   id="svg35"
   sodipodi:docname="logo.svg"
   inkscape:version="1.1 (ce6663b3b7, 2021-05-25)"
   xmlns:inkscape="http://www.inkscape.org/namespaces/inkscape"
   xmlns:sodipodi="http://sodipodi.sourceforge.net/DTD/sodipodi-0.dtd"
   xmlns="http://www.w3.org/2000/svg"
   xmlns:svg="http://www.w3.org/2000/svg">
  <sodipodi:namedview
     id="namedview37"
     pagecolor="#ffffff"
     bordercolor="#666666"
     borderopacity="1.0"
     inkscape:pageshadow="2"
     inkscape:pageopacity="0.0"
     inkscape:pagecheckerboard="0"
     showgrid="false"
     inkscape:zoom="1.5273438"
     inkscape:cx="231.44757"
     inkscape:cy="255.67263"
     inkscape:window-width="1848"
     inkscape:window-height="1016"
     inkscape:window-x="0"
     inkscape:window-y="0"
     inkscape:window-maximized="1"
     inkscape:current-layer="layer2" />
  <defs
     id="defs7">
    <linearGradient
       id="a"
       y2="494"
       gradientUnits="userSpaceOnUse"
       x2="256"
       gradientTransform="matrix(1 0 0 1.076 0 -19.36)"
       y1="18"
       x1="256">
      <stop
         style="stop-color:#eaeaea"
         offset="0"
         id="stop2" />
      <stop
         style="stop-color:#f4f4f4"
         offset="1"
         id="stop4" />
    </linearGradient>
  </defs>
  <rect
     style="color:#000000;fill:#f9f9f9;enable-background:accumulate"
     height="512"
     width="512"
     y="0"
     x="0"
     id="rect9" />
  <path
     d="m-208.3 605.6c-7.842 0-14.55 5.029-17.32 12.19-0.0612-0.00067-0.1208 0-0.1823 0-7.088 0-12.83 6.002-12.83 13.41 0 7.404 5.746 13.41 12.83 13.41h17.5 16.33c5.155 0 9.333-4.365 9.333-9.75 0-4.543-2.974-8.363-7-9.445 0.001-0.1029 0-0.2015 0-0.3047 0-10.77-8.357-19.5-18.67-19.5z"
     style="stroke-width:4;color:#000000;stroke:#ccc;enable-background:accumulate;display:none;fill:#fff"
     id="path19" />
  <path
     style="stroke-width:4;color:#000000;stroke:#ccc;enable-background:accumulate;display:none;fill:none"
     d="m288.9 828.1c-6.349 0-11.78 4.072-14.02 9.867-0.0496-0.00055-0.0978 0-0.1476 0-5.738 0-10.39 4.86-10.39 10.85 0 5.995 4.652 10.85 10.39 10.85h14.17 13.22c4.173 0 7.557-3.534 7.557-7.894 0-3.678-2.408-6.771-5.667-7.647 0.001-0.0833 0-0.1632 0-0.2467 0-8.719-6.766-15.79-15.11-15.79z"
     id="path21" />
  <g
     style="display:none"
     transform="translate(0 -558.4)"
     id="g33">
    <path
       d="m166.1 576.4h179.9c145.3 0 166.1 20.74 166.1 165.9v144.2c0 145.2-20.76 165.9-166.1 165.9h-179.9c-145.3 0-166.1-20-166.1-165.5v-144.2c0-145.2 20.76-165.9 166.1-165.9z"
       style="stroke:#00f;fill:#00f;display:inline;fill-opacity:.08118"
       id="path23" />
    <circle
       style="stroke-width:.8333;fill-opacity:.08118;color:#000000;stroke:#00f;enable-background:accumulate;display:inline;fill:#00f"
       cx="256"
       transform="matrix(1.2 0 0 1.2 -51.2 528.8)"
       cy="238"
       r="120"
       id="circle25" />
    <rect
       style="stroke-linejoin:round;fill-opacity:.08118;color:#000000;stroke:#00f;stroke-linecap:round;enable-background:accumulate;display:inline;fill:#00f"
       height="272"
       width="272"
       y="678.4"
       x="120"
       id="rect27" />
    <rect
       style="stroke-linejoin:round;fill-opacity:.08118;color:#000000;stroke:#00f;stroke-linecap:round;enable-background:accumulate;display:inline;fill:#00f"
       height="240"
       width="304"
       y="694.4"
       x="104"
       id="rect29" />
    <rect
       style="stroke-linejoin:round;fill-opacity:.08118;color:#000000;stroke:#00f;stroke-linecap:round;enable-background:accumulate;display:inline;fill:#00f"
       height="304"
       width="240"
       y="662.4"
       x="136"
       id="rect31" />
  </g>
  <g
     inkscape:groupmode="layer"
     id="layer1"
     inkscape:label="Layer 1"
     style="display:inline">
    <g
       id="g2428"
       transform="matrix(0.64485249,0,0,0.64485249,94.9363,85.293212)">
      <g
         id="g2228">
	<path
   class="st0"
   d="m 159.6499,95.3228 -31.7174,-49.3368 -7.8957,5.0753 -7.8924,5.091 31.7338,49.3093 c 0,0 6.9524,12.9593 3.6624,24.1367 l 16.2684,-10.4724 16.2986,-10.4806 c -11.5322,-1.645 -20.4577,-13.3225 -20.4577,-13.3225 z"
   id="path2224"
   style="fill:#000080" />

	<path
   class="st0"
   d="m 142.5915,36.566 c 3.159,4.8895 -4.3757,15.3668 -16.8376,23.3852 -12.4641,8.0047 -25.12,10.5354 -28.2768,5.6218 -3.1563,-4.884 4.3921,-15.3701 16.848,-23.3742 12.462,-8.0184 25.126,-10.5437 28.2664,-5.6328 z"
   id="path2226"
   style="fill:#000080" />

</g>
      <g
         id="g2234">
	<path
   class="st0"
   d="m 224.0576,92.0076 -13.6561,-57.0127 -9.1194,2.1917 -9.1276,2.1725 13.6588,57.0455 c 0,0 2.2711,14.5227 -4.5148,23.9757 l 18.8129,-4.5038 18.8266,-4.512 c -10.3328,-5.359 -14.8804,-19.3569 -14.8804,-19.3569 z"
   id="path2230"
   style="fill:#000080" />

	<path
   class="st0"
   d="m 227.359,30.9392 c 1.3667,5.6651 -9.207,13.0601 -23.6284,16.5199 -14.4049,3.4357 -27.1917,1.6428 -28.5392,-4.0223 -1.3662,-5.6788 9.218,-13.0689 23.6284,-16.5286 14.4104,-3.4434 27.1922,-1.6424 28.5392,4.031 z"
   id="path2232"
   style="fill:#000080" />

</g>
      <g
         id="g2240">
	<path
   class="st0"
   d="m 284.6122,76.012 11.1801,-57.5648 -9.2256,-1.7759 -9.1961,-1.7874 -11.1664,57.584 c 0,0 -3.9407,14.1507 -14.0226,19.9495 l 18.9854,3.6871 18.9876,3.6838 C 282.9891,90.6442 284.6122,76.012 284.6122,76.012 Z"
   id="path2236"
   style="fill:#000080" />

	<path
   class="st0"
   d="m 312.9087,21.7869 c -1.1098,5.717 -13.7958,8.0808 -28.3508,5.2472 -14.5364,-2.826 -25.4322,-9.7592 -24.3279,-15.4709 1.1093,-5.7226 13.8144,-8.0753 28.353,-5.2473 14.5501,2.8069 25.4322,9.7402 24.3257,15.471 z"
   id="path2238"
   style="fill:#000080" />

</g>
      <g
         id="g2246">
	<path
   class="st0"
   d="m 344.607,99.1402 26.2106,-52.4623 -8.3898,-4.1845 -8.3897,-4.1784 -26.2166,52.4382 c 0,0 -7.5916,12.5929 -18.8649,15.4709 l 17.3048,8.6439 17.307,8.6604 c -4.4491,-10.7485 1.0386,-24.3882 1.0386,-24.3882 z"
   id="path2242"
   style="fill:#000080" />

	<path
   class="st0"
   d="m 386.4194,54.4717 c -2.6124,5.217 -15.4457,4.0831 -28.7112,-2.5444 -13.2573,-6.6078 -21.8848,-16.2082 -19.2856,-21.4252 2.6124,-5.2225 15.4731,-4.0749 28.7304,2.5389 13.2463,6.627 21.8765,16.2137 19.2664,21.4307 z"
   id="path2244"
   style="fill:#000080" />

</g>
      <g
         id="g2252">
	<path
   class="st0"
   d="m 378.5626,156.1507 40.8834,-42.0315 -6.7311,-6.5427 -6.7141,-6.5312 -40.8894,42.0091 c 0,0 -11.0623,9.6988 -22.6851,9.0131 l 13.8582,13.495 13.8747,13.5109 c -0.9893,-11.6116 8.4034,-22.9227 8.4034,-22.9227 z"
   id="path2248"
   style="fill:#000080" />

	<path
   class="st0"
   d="m 431.9408,126.2831 c -4.0585,4.1646 -15.9737,-0.8147 -26.5826,-11.1445 -10.6115,-10.3305 -15.9244,-22.0979 -11.8659,-26.2763 4.0667,-4.1784 15.9765,0.814 26.599,11.1445 10.606,10.3245 15.9189,22.0979 11.8495,26.2763 z"
   id="path2250"
   style="fill:#000080" />

</g>
      <g
         id="g2258">
	<path
   class="st0"
   d="m 422.3733,198.0836 54.7553,-20.9969 -3.3694,-8.7721 -3.3535,-8.7507 -54.7662,21.01 c 0,0 -14.091,4.1516 -24.358,-1.3415 l 6.9387,18.0695 6.9223,18.0777 c 3.9598,-10.9396 17.2308,-17.296 17.2308,-17.296 z"
   id="path2254"
   style="fill:#000080" />

	<path
   class="st0"
   d="m 483.3623,193.3667 c -5.4329,2.0821 -14.1508,-7.4416 -19.4664,-21.2538 -5.3096,-13.8363 -5.1869,-26.7573 0.2542,-28.8262 5.4466,-2.0958 14.159,7.4284 19.4719,21.2647 5.2964,13.8227 5.1896,26.738 -0.2597,28.8153 z"
   id="path2256"
   style="fill:#000080" />

</g>
      <g
         id="g2264">
	<path
   class="st0"
   d="m 433.9248,261.158 58.576,-2.5828 -0.4042,-9.3681 -0.4213,-9.3763 -58.576,2.5932 c 0,0 -14.7051,-0.5248 -22.7016,-8.9693 l 0.8578,19.3349 0.8639,19.3298 c 7.2121,-9.1143 21.8054,-10.9614 21.8054,-10.9614 z"
   id="path2260"
   style="fill:#000080" />

	<path
   class="st0"
   d="m 493.2771,276.0028 c -5.824,0.2679 -11.0788,-11.5303 -11.7268,-26.3422 -0.6612,-14.7845 3.5255,-27.0058 9.3522,-27.2545 5.8289,-0.2651 11.087,11.5406 11.7263,26.3256 0.6644,14.8037 -3.5278,27.0195 -9.3517,27.2711 z"
   id="path2262"
   style="fill:#000080" />

</g>
      <g
         id="g2270">
	<path
   class="st0"
   d="m 400.8654,315.1919 53.709,23.5216 3.7523,-8.5946 3.7797,-8.6001 -53.7282,-23.5084 c 0,0 -12.9675,-6.9551 -16.4054,-18.0668 l -7.7669,17.7283 -7.7582,17.7195 c 10.5238,-4.9987 24.4177,-0.1995 24.4177,-0.1995 z"
   id="path2266"
   style="fill:#000080" />

	<path
   class="st0"
   d="m 447.5782,354.6899 c -5.3288,-2.345 -4.8506,-15.2332 1.0824,-28.8016 5.9604,-13.5739 15.0989,-22.6856 20.4414,-20.349 5.3348,2.3287 4.8456,15.2497 -1.1065,28.8154 -5.9303,13.5548 -15.0715,22.6748 -20.4173,20.3352 z"
   id="path2268"
   style="fill:#000080" />

</g>
      <g
         id="g2276">
	<path
   class="st0"
   d="m 385.1436,376.7878 45.2366,37.3009 5.9631,-7.2367 5.9686,-7.2339 -45.2289,-37.3064 c 0,0 -10.5677,-10.2423 -10.8602,-21.8629 l -12.3031,14.9214 -12.3091,14.9324 c 11.4726,-1.9346 23.533,6.4852 23.533,6.4852 z"
   id="path2272"
   style="fill:#000080" />

	<path
   class="st0"
   d="m 419.2904,427.54 c -4.4984,-3.6981 -0.5193,-15.971 8.9145,-27.3971 9.4338,-11.448 20.7043,-17.6901 25.2027,-13.998 4.5088,3.7058 0.5138,15.9903 -8.9227,27.4301 -9.4125,11.4288 -20.7044,17.6762 -25.1945,13.965 z"
   id="path2274"
   style="fill:#000080" />

</g>
      <g
         id="g2282">
	<path
   class="st0"
   d="m 337.6491,416.2284 30.0752,50.3364 8.0616,-4.8013 8.054,-4.8184 -30.0779,-50.3472 c 0,0 -6.518,-13.1779 -2.8671,-24.2272 l -16.6075,9.9072 -16.6158,9.9339 c 11.459,2.0438 19.9775,14.0166 19.9775,14.0166 z"
   id="path2278"
   style="fill:#000080" />

	<path
   class="st0"
   d="m 352.7563,475.5121 c -2.9788,-5.0012 4.8862,-15.2025 17.6105,-22.8166 12.7271,-7.5999 25.4541,-9.7017 28.4412,-4.7032 3.0029,5.0121 -4.8949,15.2277 -17.6165,22.8275 -12.7075,7.5895 -25.4455,9.71 -28.4352,4.6923 z"
   id="path2280"
   style="fill:#000080" />

</g>
      <g
         id="g2288">
	<path
   class="st0"
   d="m 274.8206,420.4725 9.2701,57.9039 9.2613,-1.4868 9.2701,-1.4948 -9.2755,-57.8957 c 0,0 -1.1613,-14.6508 6.3241,-23.5736 l -19.1136,3.0582 -19.0999,3.0687 c 9.879,6.1275 13.3634,20.4201 13.3634,20.4201 z"
   id="path2284"
   style="fill:#000080" />

	<path
   class="st0"
   d="m 266.8708,481.1175 c -0.929,-5.7473 10.1826,-12.3091 24.817,-14.6618 14.6262,-2.3341 27.241,0.437 28.1569,6.1899 0.9263,5.75 -10.1909,12.325 -24.8253,14.6783 -14.6213,2.3308 -27.2306,-0.4377 -28.1486,-6.2064 z"
   id="path2286"
   style="fill:#000080" />

</g>
      <g
         id="g2294">
	<path
   class="st0"
   d="m 214.6511,435.4433 -10.7918,57.6547 9.2153,1.703 9.2125,1.7381 10.8055,-57.6415 c 0,0 3.8481,-14.1892 13.902,-20.0481 l -19.0232,-3.5748 -19.0183,-3.5693 c 7.2422,9.1199 5.698,23.7379 5.698,23.7379 z"
   id="path2290"
   style="fill:#000080" />

	<path
   class="st0"
   d="m 186.7052,489.8732 c 1.0742,-5.7226 13.7459,-8.1576 28.3069,-5.4411 14.5714,2.7356 25.5056,9.5954 24.4205,15.3235 -1.0654,5.7225 -13.7377,8.1656 -28.3201,5.4219 -14.5473,-2.7246 -25.4761,-9.568 -24.4073,-15.3043 z"
   id="path2292"
   style="fill:#000080" />

</g>
      <g
         id="g2300">
	<path
   class="st0"
   d="m 165.6705,395.4972 -30.3458,50.1801 8.0397,4.8512 8.0376,4.8533 30.3211,-50.183 c 0,0 8.5837,-11.9509 20.0591,-13.913 l -16.561,-9.9998 -16.5637,-10.0105 c 3.5798,11.0575 -2.987,24.2217 -2.987,24.2217 z"
   id="path2296"
   style="fill:#000080" />

	<path
   class="st0"
   d="m 120.417,436.6539 c 3.0062,-4.9738 15.7278,-2.8123 28.4214,4.8396 12.6695,7.6765 20.5077,17.9385 17.4933,22.9123 -3.0226,4.9986 -15.747,2.8261 -28.4357,-4.8533 -12.6718,-7.6386 -20.5072,-17.8919 -17.479,-22.8986 z"
   id="path2298"
   style="fill:#000080" />

</g>
      <g
         id="g2306">
	<path
   class="st0"
   d="m 104.9406,373.3774 -44.9583,37.642 6.0234,7.1957 6.0288,7.1901 44.9556,-37.6394 c 0,0 11.9859,-8.5157 23.4778,-6.6571 l -12.4209,-14.8318 -12.4236,-14.831 c -0.2022,11.6283 -10.6828,21.9315 -10.6828,21.9315 z"
   id="path2302"
   style="fill:#000080" />

	<path
   class="st0"
   d="m 48.7748,397.656 c 4.46,-3.7495 15.81,2.4212 25.3227,13.7925 9.4968,11.3417 13.6046,23.6037 9.1282,27.3396 -4.4819,3.7495 -15.799,-2.4349 -25.3309,-13.7925 -9.4969,-11.3633 -13.5965,-23.5901 -9.12,-27.3396 z"
   id="path2304"
   style="fill:#000080" />

</g>
      <g
         id="g2312">
	<path
   class="st0"
   d="m 74.3461,316.7936 -54.4244,21.8163 3.4926,8.7042 3.4872,8.7151 54.4299,-21.8224 c 0,0 14.0417,-4.3641 24.3936,0.9625 l -7.2038,-17.9578 -7.1956,-17.9661 c -3.8125,10.9918 -16.9795,17.5482 -16.9795,17.5482 z"
   id="path2308"
   style="fill:#000080" />

	<path
   class="st0"
   d="m 13.4311,322.4286 c 5.4055,-2.1807 14.2652,7.2038 19.7939,20.9552 5.5013,13.7684 5.5835,26.6564 0.1775,28.8344 -5.4137,2.173 -14.2734,-7.2148 -19.7939,-20.9689 -5.5151,-13.7601 -5.594,-26.6619 -0.1775,-28.8207 z"
   id="path2310"
   style="fill:#000080" />

</g>
      <g
         id="g2318">
	<path
   class="st0"
   d="m 81.5362,250.5081 -58.1329,7.6382 1.2133,9.2942 1.2352,9.3111 58.1362,-7.6465 c 0,0 14.6914,-0.7544 23.3819,6.9743 l -2.511,-19.1821 -2.5307,-19.1875 c -6.4084,9.7017 -20.792,12.7983 -20.792,12.7983 z"
   id="path2314"
   style="fill:#000080" />

	<path
   class="st0"
   d="m 21.1213,240.842 c 5.7747,-0.7433 12.0407,10.5513 13.9705,25.2268 1.9293,14.6891 -1.192,27.2163 -6.9579,27.9679 -5.8021,0.7762 -12.0549,-10.5239 -13.976,-25.2131 -1.9402,-14.6892 1.1751,-27.2114 6.9634,-27.9816 z"
   id="path2316"
   style="fill:#000080" />

</g>
      <g
         id="g2324">
	<path
   class="st0"
   d="m 80.6154,191.4428 -56.2995,-16.419 -2.6206,8.9962 -2.6184,9.0241 56.2858,16.4081 c 0,0 13.7465,5.2307 18.5971,15.8094 l 5.4142,-18.5779 5.4274,-18.5806 c -9.7865,6.3022 -24.186,3.3397 -24.186,3.3397 z"
   id="path2320"
   style="fill:#000080" />

	<path
   class="st0"
   d="m 29.2131,158.2712 c 5.5835,1.6263 6.7694,14.4953 2.6047,28.7167 -4.1379,14.2163 -12.0385,24.4265 -17.6269,22.7979 -5.6027,-1.6428 -6.7722,-14.4898 -2.6321,-28.7063 4.1543,-14.2269 12.0549,-24.437 17.6543,-22.8083 z"
   id="path2322"
   style="fill:#000080" />

</g>
      <g
         id="g2330">
	<path
   class="st0"
   d="m 122.0784,145.1837 -45.2042,-37.3256 -5.9878,7.2367 -5.9741,7.2422 45.2262,37.3256 c 0,0 10.5628,10.2204 10.817,21.8596 L 133.2887,166.5957 145.6,151.6826 c -11.4694,1.9237 -23.5216,-6.4989 -23.5216,-6.4989 z"
   id="path2326"
   style="fill:#000080" />

	<path
   class="st0"
   d="m 87.9644,94.4069 c 4.4901,3.703 0.4946,15.982 -8.9364,27.4024 -9.4311,11.429 -20.7317,17.6846 -25.2219,13.9652 -4.4956,-3.7167 -0.5001,-15.971 8.9474,-27.4217 C 72.1736,96.9486 83.4661,90.682 87.9644,94.4069 Z"
   id="path2328"
   style="fill:#000080" />

</g>
      <path
         class="st0"
         d="m 387.4415,171.4737 c -6.8182,-11.0191 -3.4214,-25.4755 7.5922,-32.2944 l 0.2788,-0.1609 c -3.9544,-4.9086 -8.1279,-9.6009 -12.5331,-14.0554 l -0.1967,0.2624 c -8.0047,10.1852 -22.7645,11.9344 -32.939,3.9296 -10.1909,-8.0177 -11.9454,-22.7644 -3.933,-32.9416 l 0.178,-0.2049 c -5.3759,-3.2494 -10.9205,-6.1981 -16.5834,-8.8707 l -0.0816,0.2569 c -4.0284,12.2921 -17.2911,18.9958 -29.6079,14.9647 -12.2866,-4.0251 -19.0013,-17.2796 -14.968,-29.5964 l 0.0712,-0.2514 c -6.1296,-1.1974 -12.3469,-2.0881 -18.5916,-2.6786 v 0.2898 c 0.4234,12.9456 -9.7291,23.784 -22.6884,24.2134 -12.9292,0.4289 -23.7703,-9.7236 -24.1964,-22.6637 l -0.0164,-0.2816 c -6.1461,0.9811 -12.2817,2.2766 -18.3922,3.8914 l 0.0931,0.2432 c 4.8396,12.0303 -0.9756,25.6809 -12.9949,30.5129 -12.0084,4.8369 -25.6782,-0.9679 -30.5205,-12.984 l -0.1013,-0.2432 c -5.1184,2.8501 -10.0758,5.9083 -14.8503,9.1714 l 0.1967,0.2158 c 8.5815,9.6716 7.6985,24.508 -1.9841,33.1088 -9.7044,8.5946 -24.5246,7.7039 -33.1192,-1.9923 l -0.1945,-0.2131 c -4.1346,4.7299 -8.0233,9.6661 -11.6556,14.7462 l 0.2323,0.1286 c 11.3856,6.1654 15.6243,20.395 9.4804,31.797 -6.1488,11.3877 -20.3927,15.6292 -31.7859,9.4771 l -0.2076,-0.1145 c -2.2793,5.8371 -4.2579,11.7838 -5.9494,17.8345 l 0.2761,0.0329 c 12.795,1.8909 21.6745,13.798 19.783,26.6235 -1.8663,12.817 -13.7788,21.674 -26.599,19.8022 l -0.3194,-0.0438 c -0.1315,6.2421 0.0411,12.5167 0.5467,18.8103 l 0.3303,-0.0653 c 12.6778,-2.6403 25.0767,5.5173 27.7252,18.2006 2.6233,12.686 -5.5369,25.0986 -18.2147,27.7329 l -0.2843,0.0493 c 1.0852,3.1733 2.2547,6.3159 3.5282,9.4612 1.0873,2.7109 2.241,5.3786 3.4543,8.0047 l 0.2295,-0.1342 c 11.0246,-6.8182 25.4837,-3.4159 32.2887,7.6059 6.8291,10.9998 3.4214,25.4645 -7.6053,32.2833 l -0.2679,0.172 c 3.9626,4.9026 8.1383,9.5948 12.5326,14.0362 l 0.2076,-0.2679 c 8.0047,-10.1662 22.7569,-11.9207 32.945,-3.9248 10.1744,8.0184 11.9372,22.7651 3.9133,32.9423 l -0.1665,0.224 c 5.3808,3.2303 10.9287,6.1789 16.5883,8.8515 l 0.0707,-0.2379 c 4.0366,-12.3112 17.2994,-19.0149 29.597,-14.9762 12.3255,4.0367 19.021,17.2913 14.9872,29.5944 l -0.0849,0.2514 c 6.1433,1.2051 12.3469,2.0909 18.6053,2.6731 v -0.2816 c -0.4344,-12.9347 9.7099,-23.7845 22.6638,-24.2079 12.9484,-0.4234 23.8031,9.7099 24.2129,22.661 l 0.0164,0.2843 c 6.1494,-0.9949 12.2708,-2.2903 18.384,-3.9057 l -0.0981,-0.2295 c -4.8374,-12.0215 0.9948,-25.6913 12.9998,-30.5371 12.0248,-4.834 25.6809,0.9922 30.5233,13.0088 l 0.0931,0.2295 c 5.1321,-2.8501 10.1005,-5.9001 14.864,-9.1577 l -0.1939,-0.2158 c -8.581,-9.6853 -7.6957,-24.5273 1.9895,-33.117 9.688,-8.5809 24.5246,-7.7039 33.1115,1.9813 l 0.1802,0.2186 c 4.1428,-4.7306 8.0452,-9.6469 11.6803,-14.7544 l -0.246,-0.1205 c -11.3795,-6.1461 -15.6374,-20.3927 -9.4804,-31.7749 6.1598,-11.4014 20.4009,-15.6512 31.7859,-9.4935 l 0.2213,0.1282 c 2.2738,-5.8508 4.2552,-11.8112 5.9275,-17.8427 l -0.2569,-0.0384 c -12.8087,-1.8911 -21.6794,-13.8034 -19.8049,-26.6154 1.8827,-12.8032 13.787,-21.6931 26.6099,-19.8104 l 0.3276,0.052 c 0.1233,-6.2556 -0.0433,-12.5167 -0.5352,-18.8156 l -0.3281,0.0707 c -12.6942,2.6321 -25.1096,-5.5309 -27.7301,-18.2087 -2.6293,-12.6887 5.5227,-25.0986 18.1977,-27.7307 l 0.2761,-0.046 c -1.0736,-3.1788 -2.2355,-6.3187 -3.5008,-9.4585 -1.0901,-2.7164 -2.2683,-5.3841 -3.4707,-8.024 l -0.224,0.1475 c -11.0132,6.8186 -25.4756,3.4164 -32.2944,-7.5945 z"
         id="path2332"
         style="fill:#000080" />
      <path
         class="st1"
         d="m 190.7061,215.0324 c 6.6845,16.5999 -1.3557,35.4757 -17.9578,42.1656 -16.5938,6.6902 -35.4834,-1.353 -42.1707,-17.9577 -6.6873,-16.6048 1.3552,-35.4806 17.9578,-42.1652 16.6021,-6.6845 35.4835,1.347 42.1707,17.9573 z"
         id="path2334"
         style="fill:#ffffff" />
      <path
         class="st1"
         d="m 281.5545,251.7516 c 6.6873,16.6101 -1.3585,35.4971 -17.9578,42.1816 -16.602,6.6845 -35.4889,-1.3694 -42.1679,-17.9688 -6.6927,-16.5993 1.3475,-35.4807 17.9578,-42.1652 16.5965,-6.679 35.4779,1.3471 42.1679,17.9524 z"
         id="path2336"
         style="fill:#ffffff" />
      <path
         class="st1"
         d="m 210.1095,328.0745 c 6.6845,16.5993 -1.3557,35.4724 -17.9468,42.157 -16.6267,6.6982 -35.4998,-1.3388 -42.1843,-17.9381 -6.69,-16.6185 1.3497,-35.4917 17.9682,-42.1767 16.5998,-6.6845 35.4756,1.3448 42.1629,17.9578 z"
         id="path2338"
         style="fill:#ffffff" />
      <path
         class="st1"
         d="m 267.6168,130.3717 c 6.6736,16.5938 -1.3667,35.4752 -17.9633,42.1515 -16.6021,6.6927 -35.4916,-1.3448 -42.1707,-17.9441 -6.6818,-16.5994 1.3557,-35.4916 17.9578,-42.1761 16.5967,-6.6845 35.4862,1.3579 42.1762,17.9687 z"
         id="path2340"
         style="fill:#ffffff" />
      <path
         class="st1"
         d="m 184.6389,99.5586 c 4.9218,7.48 -3.1864,21.5267 -18.1298,31.3894 -14.9406,9.8573 -31.048,11.8008 -35.9808,4.3209 -4.9382,-7.4662 3.1837,-21.5079 18.1134,-31.3707 14.9434,-9.8709 31.0508,-11.8139 35.9972,-4.3396 z"
         id="path2342"
         style="fill:#ffffff" />
      <path
         class="st1"
         d="m 417.5934,274.464 c 7.9718,4.0175 7.9225,20.24 -0.1397,36.2241 -8.0562,15.9901 -21.073,25.6809 -29.0585,21.6471 -7.9932,-4.0366 -7.9307,-20.2639 0.1233,-36.2404 8.0589,-15.9793 21.0702,-25.67 29.0749,-21.6308 z"
         id="path2344"
         style="fill:#ffffff" />
      <path
         class="st1"
         d="m 88.1665,286.3081 c 8.2205,-3.5058 20.603,6.9853 27.637,23.4509 7.0318,16.4574 6.059,32.6519 -2.1752,36.1582 -8.215,3.5255 -20.592,-6.9799 -27.6288,-23.4312 -7.0318,-16.4573 -6.0754,-32.6606 2.167,-36.1779 z"
         id="path2346"
         style="fill:#ffffff" />
      <path
         class="st1"
         d="m 193.0342,400.4896 c 2.3231,-8.6522 18.2147,-11.8769 35.5025,-7.2307 17.2884,4.6539 29.4113,15.4265 27.0799,24.0737 -2.3116,8.6385 -18.2114,11.8824 -35.4943,7.2285 -17.2961,-4.6599 -29.4189,-15.4325 -27.0881,-24.0715 z"
         id="path2348"
         style="fill:#ffffff" />
      <path
         class="st1"
         d="m 298.3915,106.601 c 3.6345,-8.1822 19.8323,-8.9666 36.2021,-1.7436 16.3807,7.2312 26.7167,19.7288 23.1091,27.9191 -3.6071,8.1821 -19.8186,8.9719 -36.1829,1.7436 -16.3808,-7.2312 -26.725,-19.7397 -23.1283,-27.9191 z"
         id="path2350"
         style="fill:#ffffff" />
      <path
         class="st1"
         d="m 388.2232,200.5432 c 6.6845,16.6048 -1.3771,35.4861 -17.9792,42.1789 -16.5971,6.6818 -35.4785,-1.3612 -42.1657,-17.9524 -6.6873,-16.6266 1.3503,-35.5052 17.955,-42.1843 16.5994,-6.6846 35.4972,1.3528 42.1899,17.9578 z"
         id="path2352"
         style="fill:#ffffff" />
      <path
         class="st1"
         d="m 347.8536,334.8303 c 6.6845,16.6048 -1.3612,35.4861 -17.9633,42.1707 -16.613,6.6899 -35.4916,-1.3525 -42.1707,-17.9523 -6.6927,-16.5993 1.3503,-35.4724 17.966,-42.157 16.5967,-6.6983 35.478,1.331 42.168,17.9386 z"
         id="path2354"
         style="fill:#ffffff" />
    </g>
  </g>
  <g
     inkscape:groupmode="layer"
     id="layer2"
     inkscape:label="Layer 2"
     style="display:inline">
    <g
       transform="translate(0.997442,16.726343)"
       id="g17"
       style="enable-background:new">
      <path
         style="color:#000000;opacity:0.3;fill:#ffffff;enable-background:accumulate"
         d="M 256,256 108.2,512 H 512 V 256 H 389.3 Z"
         transform="translate(0,-18)"
         id="path13" />
    </g>
    <path
       style="color:#000000;display:inline;opacity:0.15;fill:#ffffff;enable-background:accumulate"
       d="M 0,0 V 512 H 108.2 L 184.6,379.7 256,256 187.1,136 186.9,136.3 108.2,0 Z"
       id="path15" />
  </g>
  <style
     type="text/css"
     id="style2222">
	.st0{fill:#2175BB;}
	.st1{fill:#3EA9C8;}
</style>
</svg>
